<svg id="svg" version="1.1" xmlns="http://www.w3.org/2000/svg" xmlns:xlink="http://www.w3.org/1999/xlink" width="400" height="400" viewBox="0, 0, 400,400"><g id="svgg"><path id="path0" d="M0.000 200.000 L 0.000 400.000 200.000 400.000 L 400.000 400.000 400.000 200.000 L 400.000 0.000 200.000 0.000 L 0.000 0.000 0.000 200.000 M93.667 81.667 L 93.667 94.833 80.417 94.833 L 67.167 94.833 67.167 81.667 L 67.167 68.500 80.417 68.500 L 93.667 68.500 93.667 81.667 M133.167 81.667 L 133.167 94.833 119.917 94.833 L 106.667 94.833 106.667 81.667 L 106.667 68.500 119.917 68.500 L 133.167 68.500 133.167 81.667 M281.917 71.501 C 283.932 71.724,284.871 71.952,286.208 72.545 C 287.506 73.121,287.461 73.003,286.896 74.364 C 286.084 76.319,285.973 76.525,285.778 76.443 C 280.648 74.265,276.833 74.651,276.833 77.347 C 276.833 78.578,277.672 79.079,281.000 79.837 C 286.552 81.101,288.083 82.379,288.083 85.750 C 288.083 88.614,286.751 90.271,283.583 91.346 C 280.593 92.361,274.386 91.550,272.189 89.857 L 271.795 89.553 272.334 88.402 C 272.631 87.768,272.972 87.020,273.093 86.738 L 273.313 86.227 274.716 86.914 C 278.773 88.900,283.667 88.495,283.667 86.172 C 283.667 84.854,282.964 84.431,279.197 83.482 C 273.875 82.142,272.243 80.755,272.258 77.583 C 272.274 74.189,274.653 72.008,278.874 71.517 C 279.539 71.440,280.158 71.367,280.250 71.356 C 280.342 71.345,281.092 71.410,281.917 71.501 M322.437 71.758 C 330.209 73.486,333.094 83.079,327.520 88.659 C 321.239 94.949,309.605 91.369,308.891 82.927 L 308.784 81.667 311.049 81.667 L 313.313 81.667 313.420 82.458 C 314.438 89.991,324.966 89.783,325.785 82.214 C 326.156 78.783,323.369 75.333,320.225 75.333 L 319.667 75.333 319.667 73.358 L 319.667 71.382 320.542 71.457 C 321.023 71.498,321.876 71.634,322.437 71.758 M93.667 121.083 L 93.667 134.333 80.417 134.333 L 67.167 134.333 67.167 121.083 L 67.167 107.833 80.417 107.833 L 93.667 107.833 93.667 121.083 M133.167 121.084 L 133.167 134.335 119.958 134.293 L 106.750 134.250 106.707 121.042 L 106.665 107.833 119.916 107.833 L 133.167 107.833 133.167 121.084 M287.667 112.750 L 287.667 114.667 280.000 114.667 L 272.333 114.667 272.333 112.750 L 272.333 110.833 280.000 110.833 L 287.667 110.833 287.667 112.750 M328.500 112.750 L 328.500 114.667 325.250 114.667 L 322.000 114.667 322.000 123.000 L 322.000 131.333 319.583 131.333 L 317.167 131.333 317.167 123.000 L 317.167 114.667 313.917 114.667 L 310.667 114.667 310.667 112.750 L 310.667 110.833 319.583 110.833 L 328.500 110.833 328.500 112.750 M285.125 120.162 L 286.500 120.167 286.500 122.000 L 286.500 123.833 281.750 123.833 L 277.000 123.833 277.000 127.583 L 277.000 131.333 274.667 131.333 L 272.333 131.333 272.333 125.762 C 272.333 120.672,272.358 120.186,272.614 120.137 C 272.768 120.108,275.337 120.100,278.322 120.120 C 281.308 120.141,284.369 120.160,285.125 120.162 M133.000 160.583 L 133.000 173.833 119.833 173.833 L 106.667 173.833 106.667 160.583 L 106.667 147.333 119.833 147.333 L 133.000 147.333 133.000 160.583 M172.626 160.542 L 172.583 173.750 159.417 173.750 L 146.250 173.750 146.207 160.542 L 146.165 147.333 159.417 147.333 L 172.669 147.333 172.626 160.542 M231.008 151.333 C 231.171 151.837,231.768 153.563,232.335 155.167 C 233.426 158.257,235.974 165.628,236.916 168.417 C 237.225 169.333,237.529 170.215,237.590 170.375 C 237.694 170.645,237.508 170.667,235.051 170.667 L 232.400 170.667 232.188 170.042 C 232.072 169.698,231.838 169.042,231.669 168.583 C 231.500 168.125,231.161 167.188,230.917 166.500 C 230.672 165.813,230.333 164.875,230.164 164.417 C 229.805 163.447,228.680 160.324,227.596 157.291 C 227.178 156.122,226.507 154.247,226.104 153.124 C 225.701 152.002,225.320 150.913,225.257 150.704 L 225.142 150.325 227.926 150.371 L 230.711 150.417 231.008 151.333 M241.000 150.381 C 241.000 150.408,241.457 151.739,242.015 153.340 C 242.574 154.940,243.093 156.438,243.170 156.667 C 243.311 157.089,244.950 161.722,245.499 163.250 L 245.798 164.083 246.045 163.500 C 246.181 163.179,246.533 162.242,246.829 161.417 C 247.124 160.592,247.703 158.979,248.115 157.833 C 248.527 156.688,249.200 154.813,249.611 153.667 C 250.021 152.521,250.456 151.321,250.576 151.000 L 250.796 150.417 253.398 150.371 C 254.829 150.346,256.000 150.351,256.000 150.382 C 256.000 150.413,255.729 151.184,255.398 152.095 C 255.068 153.005,254.474 154.650,254.079 155.750 C 253.352 157.773,252.529 160.045,251.421 163.083 C 251.087 164.000,250.707 165.050,250.578 165.417 C 250.449 165.783,249.973 167.096,249.521 168.333 L 248.700 170.583 245.808 170.627 L 242.917 170.670 242.225 168.627 C 241.546 166.623,239.218 159.866,237.730 155.583 C 236.867 153.099,236.000 150.502,236.000 150.402 C 236.000 150.364,237.125 150.333,238.500 150.333 C 239.875 150.333,241.000 150.355,241.000 150.381 M282.914 151.375 C 283.167 151.948,283.599 152.904,283.874 153.500 C 284.149 154.096,284.581 155.071,284.833 155.667 C 285.086 156.262,285.518 157.237,285.793 157.833 C 286.230 158.779,286.842 160.142,288.017 162.788 C 288.191 163.180,288.494 163.856,288.691 164.292 C 288.887 164.727,289.230 165.496,289.452 166.000 C 289.674 166.504,289.997 167.217,290.169 167.583 C 290.342 167.950,290.707 168.775,290.979 169.417 L 291.474 170.583 289.125 170.630 C 286.352 170.685,286.763 170.992,285.500 167.917 C 284.936 166.542,284.296 165.004,284.079 164.500 C 283.861 163.996,282.925 161.751,281.999 159.511 C 281.073 157.271,280.261 155.342,280.195 155.224 C 280.085 155.027,279.772 155.692,278.221 159.417 C 277.992 159.967,277.704 160.642,277.582 160.917 C 277.460 161.192,277.234 161.754,277.079 162.167 C 276.923 162.579,276.665 163.217,276.503 163.583 C 276.214 164.242,274.275 168.830,273.775 170.042 L 273.517 170.667 271.082 170.667 C 269.743 170.667,268.678 170.610,268.716 170.542 C 268.876 170.253,270.167 167.462,270.167 167.404 C 270.167 167.370,270.402 166.834,270.689 166.213 C 270.976 165.591,271.525 164.371,271.909 163.500 C 272.293 162.629,273.765 159.312,275.179 156.128 L 277.750 150.339 280.102 150.336 L 282.454 150.333 282.914 151.375 M172.667 200.000 L 172.667 213.167 159.417 213.167 L 146.167 213.167 146.167 200.000 L 146.167 186.833 159.417 186.833 L 172.667 186.833 172.667 200.000 M212.000 200.000 L 212.000 213.167 198.833 213.167 L 185.667 213.167 185.667 200.000 L 185.667 186.833 198.833 186.833 L 212.000 186.833 212.000 200.000 M243.606 190.065 C 250.314 191.505,252.035 199.960,246.285 203.234 L 245.487 203.688 246.057 204.469 C 246.370 204.899,247.383 206.338,248.309 207.667 L 249.991 210.083 247.537 210.132 L 245.083 210.181 244.667 209.649 C 244.232 209.095,242.526 206.658,241.616 205.292 L 241.089 204.500 238.878 204.500 L 236.667 204.500 236.667 207.333 L 236.667 210.167 234.331 210.167 L 231.995 210.167 232.039 205.466 L 232.083 200.765 237.083 200.747 C 242.460 200.727,242.893 200.663,243.934 199.731 C 245.271 198.532,245.249 195.903,243.890 194.645 C 242.851 193.684,241.598 193.500,236.071 193.500 L 232.000 193.500 232.000 191.667 L 232.000 189.833 237.292 189.839 C 241.020 189.843,242.885 189.910,243.606 190.065 M133.000 239.417 L 133.000 252.667 119.833 252.667 L 106.667 252.667 106.667 239.528 C 106.667 232.301,106.717 226.339,106.778 226.278 C 106.839 226.217,112.764 226.167,119.944 226.167 L 133.000 226.167 133.000 239.417 M172.626 239.458 L 172.669 252.667 159.418 252.667 L 146.167 252.667 146.167 239.528 C 146.167 232.301,146.217 226.338,146.279 226.277 C 146.340 226.215,152.284 226.184,159.487 226.207 L 172.583 226.250 172.626 239.458 M253.793 239.458 L 253.835 252.667 240.584 252.667 L 227.333 252.667 227.333 239.528 C 227.333 232.301,227.384 226.338,227.445 226.277 C 227.507 226.215,233.451 226.184,240.654 226.207 L 253.750 226.250 253.793 239.458 M288.000 231.083 L 288.000 233.000 280.083 233.000 L 272.167 233.000 272.167 231.083 L 272.167 229.167 280.083 229.167 L 288.000 229.167 288.000 231.083 M286.408 239.333 L 286.400 241.083 281.617 241.128 L 276.833 241.172 276.833 243.503 L 276.833 245.833 282.417 245.833 L 288.000 245.833 288.000 247.750 L 288.000 249.667 280.083 249.667 L 272.167 249.667 272.167 243.582 L 272.167 237.496 279.292 237.540 L 286.417 237.583 286.408 239.333 M93.667 278.917 L 93.667 292.167 80.417 292.167 L 67.167 292.167 67.167 278.917 L 67.167 265.667 80.417 265.667 L 93.667 265.667 93.667 278.917 M133.167 278.918 L 133.167 292.169 119.958 292.126 L 106.750 292.083 106.707 279.083 C 106.683 271.933,106.700 265.990,106.743 265.875 C 106.806 265.711,109.611 265.667,119.995 265.667 L 133.167 265.667 133.167 278.918 M293.167 278.917 L 293.167 292.167 280.000 292.167 L 266.833 292.167 266.833 278.917 L 266.833 265.667 280.000 265.667 L 293.167 265.667 293.167 278.917 M332.793 278.875 L 332.750 292.083 319.542 292.126 L 306.333 292.169 306.333 278.918 L 306.333 265.667 319.584 265.667 L 332.835 265.667 332.793 278.875 M93.667 318.333 L 93.667 331.500 80.417 331.500 L 67.167 331.500 67.167 318.333 L 67.167 305.167 80.417 305.167 L 93.667 305.167 93.667 318.333 M133.167 318.333 L 133.167 331.500 119.917 331.500 L 106.667 331.500 106.667 318.333 L 106.667 305.167 119.917 305.167 L 133.167 305.167 133.167 318.333 M293.167 318.333 L 293.167 331.500 280.000 331.500 L 266.833 331.500 266.833 318.333 L 266.833 305.167 280.000 305.167 L 293.167 305.167 293.167 318.333 M332.833 318.333 L 332.833 331.500 319.583 331.500 L 306.333 331.500 306.333 318.333 L 306.333 305.167 319.583 305.167 L 332.833 305.167 332.833 318.333 " stroke="none" fill="#fbfbfb" fill-rule="evenodd"></path><path id="path1" d="M67.248 81.625 L 67.250 94.750 80.375 94.752 L 93.500 94.753 80.418 94.709 L 67.335 94.665 67.291 81.582 L 67.247 68.500 67.248 81.625 M133.041 81.541 L 133.000 94.665 119.875 94.708 L 106.750 94.752 119.880 94.793 C 130.261 94.825,133.027 94.790,133.090 94.625 C 133.134 94.510,133.150 88.567,133.125 81.417 L 133.081 68.417 133.041 81.541 M67.246 121.083 C 67.246 128.325,67.267 131.263,67.292 127.613 C 67.317 123.962,67.317 118.037,67.292 114.446 C 67.267 110.855,67.246 113.842,67.246 121.083 M106.778 147.444 C 106.717 147.506,106.667 153.431,106.667 160.611 L 106.667 173.667 119.833 173.667 L 133.000 173.667 133.000 160.500 L 133.000 147.333 119.944 147.333 C 112.764 147.333,106.839 147.383,106.778 147.444 M152.779 147.458 C 156.370 147.483,162.295 147.483,165.946 147.458 C 169.597 147.433,166.658 147.413,159.417 147.413 C 152.175 147.413,149.188 147.433,152.779 147.458 M132.833 160.500 L 132.833 173.500 119.833 173.500 L 106.833 173.500 106.833 160.500 L 106.833 147.500 119.833 147.500 L 132.833 147.500 132.833 160.500 M152.779 173.625 C 156.370 173.650,162.295 173.650,165.946 173.625 C 169.597 173.600,166.658 173.579,159.417 173.579 C 152.175 173.579,149.188 173.600,152.779 173.625 M185.707 200.042 L 185.748 213.250 185.792 200.126 L 185.835 187.002 198.959 186.958 L 212.083 186.915 198.875 186.874 L 185.667 186.833 185.707 200.042 M152.779 226.458 C 156.370 226.483,162.295 226.483,165.946 226.458 C 169.597 226.433,166.658 226.413,159.417 226.413 C 152.175 226.413,149.188 226.433,152.779 226.458 M233.946 226.458 C 237.537 226.483,243.462 226.483,247.113 226.458 C 250.763 226.433,247.825 226.413,240.583 226.413 C 233.342 226.413,230.355 226.433,233.946 226.458 M67.246 278.833 C 67.246 286.121,67.267 289.102,67.292 285.458 C 67.317 281.815,67.317 275.852,67.292 272.208 C 67.267 268.565,67.246 271.546,67.246 278.833 M266.874 278.875 L 266.915 292.083 266.958 278.959 L 267.002 265.835 280.126 265.792 L 293.250 265.748 280.042 265.707 L 266.833 265.667 266.874 278.875 M67.243 305.375 C 67.200 305.490,67.183 311.396,67.207 318.500 L 67.250 331.417 80.375 331.418 L 93.500 331.420 80.417 331.376 L 67.333 331.331 67.333 318.333 L 67.333 305.335 80.458 305.292 L 93.583 305.248 80.453 305.207 C 70.072 305.175,67.306 305.210,67.243 305.375 M119.875 305.292 L 133.000 305.335 133.000 318.333 L 133.000 331.331 119.875 331.375 L 106.750 331.419 119.958 331.459 L 133.167 331.500 133.167 318.333 L 133.167 305.167 119.958 305.207 L 106.750 305.248 119.875 305.292 M266.833 318.333 L 266.833 331.500 280.042 331.459 L 293.250 331.419 280.125 331.375 L 267.000 331.331 267.000 318.333 L 267.000 305.335 280.125 305.292 L 293.250 305.248 280.042 305.207 L 266.833 305.167 266.833 318.333 M312.946 305.292 C 316.537 305.317,322.462 305.317,326.113 305.292 C 329.763 305.267,326.825 305.246,319.583 305.246 C 312.342 305.246,309.355 305.267,312.946 305.292 M312.946 331.458 C 316.537 331.483,322.462 331.483,326.113 331.458 C 329.763 331.433,326.825 331.413,319.583 331.413 C 312.342 331.413,309.355 331.433,312.946 331.458 " stroke="none" fill="#64ecc4" fill-rule="evenodd"></path><path id="path2" d="M67.333 278.833 L 67.333 292.000 80.417 292.000 L 93.500 292.000 93.500 278.833 L 93.500 265.667 80.417 265.667 L 67.333 265.667 67.333 278.833 " stroke="none" fill="#2291f5" fill-rule="evenodd"></path><path id="path3" d="M67.333 81.613 L 67.333 94.667 80.417 94.667 L 93.500 94.667 93.500 81.610 L 93.500 68.553 80.417 68.556 L 67.333 68.559 67.333 81.613 M106.833 81.614 L 106.833 94.667 119.917 94.667 L 133.000 94.667 133.000 81.614 L 133.000 68.562 119.917 68.561 L 106.833 68.561 106.833 81.614 M67.333 121.083 L 67.333 134.167 80.417 134.167 L 93.500 134.167 93.500 121.083 L 93.500 108.000 80.417 108.000 L 67.333 108.000 67.333 121.083 M106.833 160.500 L 106.833 173.500 119.833 173.500 L 132.833 173.500 132.833 160.500 L 132.833 147.500 119.833 147.500 L 106.833 147.500 106.833 160.500 M146.333 160.500 L 146.333 173.500 159.417 173.500 L 172.500 173.500 172.500 160.500 L 172.500 147.500 159.417 147.500 L 146.333 147.500 146.333 160.500 M185.833 200.083 L 185.833 213.167 198.917 213.167 L 212.000 213.167 212.000 200.083 L 212.000 187.000 198.917 187.000 L 185.833 187.000 185.833 200.083 M146.333 239.500 L 146.333 252.500 159.417 252.500 L 172.500 252.500 172.500 239.500 L 172.500 226.500 159.417 226.500 L 146.333 226.500 146.333 239.500 M227.500 239.500 L 227.500 252.500 240.583 252.500 L 253.667 252.500 253.667 239.500 L 253.667 226.500 240.583 226.500 L 227.500 226.500 227.500 239.500 M267.000 278.917 L 267.000 292.000 280.083 292.000 L 293.167 292.000 293.167 278.917 L 293.167 265.833 280.083 265.833 L 267.000 265.833 267.000 278.917 M67.333 318.333 L 67.333 331.333 80.417 331.333 L 93.500 331.333 93.500 318.333 L 93.500 305.333 80.417 305.333 L 67.333 305.333 67.333 318.333 M106.833 318.333 L 106.833 331.333 119.917 331.333 L 133.000 331.333 133.000 318.333 L 133.000 305.333 119.917 305.333 L 106.833 305.333 106.833 318.333 M267.000 318.333 L 267.000 331.333 280.083 331.333 L 293.167 331.333 293.167 318.333 L 293.167 305.333 280.083 305.333 L 267.000 305.333 267.000 318.333 M306.500 318.333 L 306.500 331.333 319.583 331.333 L 332.667 331.333 332.667 318.333 L 332.667 305.333 319.583 305.333 L 306.500 305.333 306.500 318.333 " stroke="none" fill="#60edc3" fill-rule="evenodd"></path><path id="path4" d="M106.833 121.083 L 106.833 134.167 120.000 134.167 L 133.167 134.167 133.167 121.083 L 133.167 108.000 120.000 108.000 L 106.833 108.000 106.833 121.083 M146.333 200.000 L 146.333 213.167 159.417 213.167 L 172.500 213.167 172.500 200.000 L 172.500 186.833 159.417 186.833 L 146.333 186.833 146.333 200.000 " stroke="none" fill="#ff0076" fill-rule="evenodd"></path><path id="path5" d="M106.667 239.417 L 106.667 252.500 119.833 252.500 L 133.000 252.500 133.000 239.417 L 133.000 226.333 119.833 226.333 L 106.667 226.333 106.667 239.417 M306.500 278.833 L 306.500 292.000 319.583 292.000 L 332.667 292.000 332.667 278.833 L 332.667 265.667 319.583 265.667 L 306.500 265.667 306.500 278.833 " stroke="none" fill="#ffe162" fill-rule="evenodd"></path><path id="path6" d="M113.279 107.958 C 116.870 107.983,122.795 107.983,126.446 107.958 C 130.097 107.933,127.158 107.913,119.917 107.913 C 112.675 107.913,109.688 107.933,113.279 107.958 M113.279 134.292 C 116.870 134.317,122.795 134.317,126.446 134.292 C 130.097 134.267,127.158 134.246,119.917 134.246 C 112.675 134.246,109.688 134.267,113.279 134.292 M172.579 200.083 C 172.579 207.325,172.600 210.263,172.625 206.613 C 172.650 202.962,172.650 197.037,172.625 193.446 C 172.600 189.855,172.579 192.842,172.579 200.083 M106.833 278.833 L 106.833 292.000 120.000 292.000 L 133.167 292.000 133.167 278.833 L 133.167 265.667 120.000 265.667 L 106.833 265.667 106.833 278.833 " stroke="none" fill="#c768f9" fill-rule="evenodd"></path><path id="path7" d="M67.333 81.613 L 67.333 94.667 80.417 94.667 L 93.500 94.667 93.500 81.610 L 93.500 68.553 80.417 68.556 L 67.333 68.559 67.333 81.613 M106.833 81.614 L 106.833 94.667 119.917 94.667 L 133.000 94.667 133.000 81.614 L 133.000 68.562 119.917 68.561 L 106.833 68.561 106.833 81.614 M67.333 121.083 L 67.333 134.167 80.417 134.167 L 93.500 134.167 93.500 121.083 L 93.500 108.000 80.417 108.000 L 67.333 108.000 67.333 121.083 M106.833 160.500 L 106.833 173.500 119.833 173.500 L 132.833 173.500 132.833 160.500 L 132.833 147.500 119.833 147.500 L 106.833 147.500 106.833 160.500 M146.333 160.500 L 146.333 173.500 159.417 173.500 L 172.500 173.500 172.500 160.500 L 172.500 147.500 159.417 147.500 L 146.333 147.500 146.333 160.500 M185.833 200.083 L 185.833 213.167 198.917 213.167 L 212.000 213.167 212.000 200.083 L 212.000 187.000 198.917 187.000 L 185.833 187.000 185.833 200.083 M146.333 239.500 L 146.333 252.500 159.417 252.500 L 172.500 252.500 172.500 239.500 L 172.500 226.500 159.417 226.500 L 146.333 226.500 146.333 239.500 M227.500 239.500 L 227.500 252.500 240.583 252.500 L 253.667 252.500 253.667 239.500 L 253.667 226.500 240.583 226.500 L 227.500 226.500 227.500 239.500 M267.000 278.917 L 267.000 292.000 280.083 292.000 L 293.167 292.000 293.167 278.917 L 293.167 265.833 280.083 265.833 L 267.000 265.833 267.000 278.917 M67.333 318.333 L 67.333 331.333 80.417 331.333 L 93.500 331.333 93.500 318.333 L 93.500 305.333 80.417 305.333 L 67.333 305.333 67.333 318.333 M106.833 318.333 L 106.833 331.333 119.917 331.333 L 133.000 331.333 133.000 318.333 L 133.000 305.333 119.917 305.333 L 106.833 305.333 106.833 318.333 M267.000 318.333 L 267.000 331.333 280.083 331.333 L 293.167 331.333 293.167 318.333 L 293.167 305.333 280.083 305.333 L 267.000 305.333 267.000 318.333 M306.500 318.333 L 306.500 331.333 319.583 331.333 L 332.667 331.333 332.667 318.333 L 332.667 305.333 319.583 305.333 L 306.500 305.333 306.500 318.333 " stroke="none" fill="#60edc3" fill-rule="evenodd"></path><path id="path8" d="M93.579 81.667 C 93.579 88.954,93.600 91.935,93.625 88.292 C 93.650 84.648,93.650 78.685,93.625 75.042 C 93.600 71.398,93.579 74.379,93.579 81.667 M106.746 81.667 C 106.746 88.954,106.767 91.935,106.792 88.292 C 106.817 84.648,106.817 78.685,106.792 75.042 C 106.767 71.398,106.746 74.379,106.746 81.667 M278.874 71.517 C 274.653 72.008,272.274 74.189,272.258 77.583 C 272.243 80.755,273.875 82.142,279.197 83.482 C 282.964 84.431,283.667 84.854,283.667 86.172 C 283.667 88.495,278.773 88.900,274.716 86.914 L 273.313 86.227 273.093 86.738 C 272.972 87.020,272.631 87.768,272.334 88.402 L 271.795 89.553 272.189 89.857 C 274.386 91.550,280.593 92.361,283.583 91.346 C 286.751 90.271,288.083 88.614,288.083 85.750 C 288.083 82.379,286.552 81.101,281.000 79.837 C 277.672 79.079,276.833 78.578,276.833 77.347 C 276.833 74.651,280.648 74.265,285.778 76.443 C 285.885 76.488,286.082 76.276,286.216 75.971 C 286.781 74.683,287.333 73.302,287.333 73.178 C 287.333 72.583,281.821 71.165,280.250 71.356 C 280.158 71.367,279.539 71.440,278.874 71.517 M319.667 73.358 L 319.667 75.333 320.225 75.333 C 323.369 75.333,326.156 78.783,325.785 82.214 C 324.966 89.783,314.438 89.991,313.420 82.458 L 313.313 81.667 311.049 81.667 L 308.784 81.667 308.891 82.927 C 309.822 93.942,327.294 95.013,330.070 84.226 C 331.704 77.874,327.349 72.038,320.542 71.457 L 319.667 71.382 319.667 73.358 M80.292 107.958 L 93.500 108.002 93.500 121.083 L 93.500 134.165 80.292 134.208 L 67.083 134.252 80.375 134.293 L 93.667 134.333 93.667 121.083 L 93.667 107.833 80.375 107.874 L 67.083 107.915 80.292 107.958 M106.746 121.000 C 106.746 128.287,106.767 131.269,106.792 127.625 C 106.817 123.981,106.817 118.019,106.792 114.375 C 106.767 110.731,106.746 113.712,106.746 121.000 M272.333 112.750 L 272.333 114.667 280.000 114.667 L 287.667 114.667 287.667 112.750 L 287.667 110.833 280.000 110.833 L 272.333 110.833 272.333 112.750 M310.667 112.750 L 310.667 114.667 313.917 114.667 L 317.167 114.667 317.167 123.000 L 317.167 131.333 319.583 131.333 L 322.000 131.333 322.000 123.000 L 322.000 114.667 325.250 114.667 L 328.500 114.667 328.500 112.750 L 328.500 110.833 319.583 110.833 L 310.667 110.833 310.667 112.750 M272.614 120.137 C 272.358 120.186,272.333 120.672,272.333 125.762 L 272.333 131.333 274.667 131.333 L 277.000 131.333 277.000 127.583 L 277.000 123.833 281.750 123.833 L 286.500 123.833 286.500 122.000 L 286.500 120.167 285.125 120.162 C 284.369 120.160,281.308 120.141,278.322 120.120 C 275.337 120.100,272.768 120.108,272.614 120.137 M146.248 160.542 L 146.250 173.750 159.417 173.750 L 172.583 173.750 172.585 160.542 L 172.586 147.333 172.542 160.500 L 172.498 173.667 159.417 173.667 L 146.335 173.667 146.291 160.500 L 146.247 147.333 146.248 160.542 M225.257 150.704 C 225.320 150.913,225.701 152.002,226.104 153.124 C 226.507 154.247,227.178 156.122,227.596 157.291 C 228.680 160.324,229.805 163.447,230.164 164.417 C 230.333 164.875,230.672 165.813,230.917 166.500 C 231.161 167.188,231.500 168.125,231.669 168.583 C 231.838 169.042,232.072 169.698,232.188 170.042 L 232.400 170.667 235.051 170.667 C 237.508 170.667,237.694 170.645,237.590 170.375 C 237.529 170.215,237.225 169.333,236.916 168.417 C 235.974 165.628,233.426 158.257,232.335 155.167 C 231.768 153.563,231.171 151.837,231.008 151.333 L 230.711 150.417 227.926 150.371 L 225.142 150.325 225.257 150.704 M236.000 150.402 C 236.000 150.502,236.867 153.099,237.730 155.583 C 239.218 159.866,241.546 166.623,242.225 168.627 L 242.917 170.670 245.808 170.627 L 248.700 170.583 249.521 168.333 C 249.973 167.096,250.449 165.783,250.578 165.417 C 250.707 165.050,251.087 164.000,251.421 163.083 C 252.529 160.045,253.352 157.773,254.079 155.750 C 254.474 154.650,255.068 153.005,255.398 152.095 C 255.729 151.184,256.000 150.413,256.000 150.382 C 256.000 150.351,254.829 150.346,253.398 150.371 L 250.796 150.417 250.576 151.000 C 250.456 151.321,250.021 152.521,249.611 153.667 C 249.200 154.813,248.527 156.688,248.115 157.833 C 247.703 158.979,247.124 160.592,246.829 161.417 C 246.533 162.242,246.181 163.179,246.045 163.500 L 245.798 164.083 245.499 163.250 C 244.950 161.722,243.311 157.089,243.170 156.667 C 243.093 156.438,242.574 154.940,242.015 153.340 C 241.457 151.739,241.000 150.408,241.000 150.381 C 241.000 150.355,239.875 150.333,238.500 150.333 C 237.125 150.333,236.000 150.364,236.000 150.402 M275.179 156.128 C 273.765 159.312,272.293 162.629,271.909 163.500 C 271.525 164.371,270.976 165.591,270.689 166.213 C 270.402 166.834,270.167 167.370,270.167 167.404 C 270.167 167.462,268.876 170.253,268.716 170.542 C 268.678 170.610,269.743 170.667,271.082 170.667 L 273.517 170.667 273.775 170.042 C 274.275 168.830,276.214 164.242,276.503 163.583 C 276.665 163.217,276.923 162.579,277.079 162.167 C 277.234 161.754,277.460 161.192,277.582 160.917 C 277.704 160.642,277.992 159.967,278.221 159.417 C 279.772 155.692,280.085 155.027,280.195 155.224 C 280.261 155.342,281.073 157.271,281.999 159.511 C 282.925 161.751,283.861 163.996,284.079 164.500 C 284.296 165.004,284.936 166.542,285.500 167.917 C 286.763 170.992,286.352 170.685,289.125 170.630 L 291.474 170.583 290.979 169.417 C 290.707 168.775,290.342 167.950,290.169 167.583 C 289.997 167.217,289.674 166.504,289.452 166.000 C 289.230 165.496,288.887 164.727,288.691 164.292 C 288.494 163.856,288.191 163.180,288.017 162.788 C 286.842 160.142,286.230 158.779,285.793 157.833 C 285.518 157.237,285.086 156.262,284.833 155.667 C 284.581 155.071,284.149 154.096,283.874 153.500 C 283.599 152.904,283.167 151.948,282.914 151.375 L 282.454 150.333 280.102 150.336 L 277.750 150.339 275.179 156.128 M113.208 173.792 C 116.852 173.817,122.815 173.817,126.458 173.792 C 130.102 173.767,127.121 173.746,119.833 173.746 C 112.546 173.746,109.565 173.767,113.208 173.792 M146.246 200.000 C 146.246 207.287,146.267 210.269,146.292 206.625 C 146.317 202.981,146.317 197.019,146.292 193.375 C 146.267 189.731,146.246 192.713,146.246 200.000 M232.000 191.667 L 232.000 193.500 236.071 193.500 C 241.598 193.500,242.851 193.684,243.890 194.645 C 245.249 195.903,245.271 198.532,243.934 199.731 C 242.893 200.663,242.460 200.727,237.083 200.747 L 232.083 200.765 232.039 205.466 L 231.995 210.167 234.331 210.167 L 236.667 210.167 236.667 207.333 L 236.667 204.500 238.878 204.500 L 241.089 204.500 241.616 205.292 C 242.526 206.658,244.232 209.095,244.667 209.649 L 245.083 210.181 247.537 210.132 L 249.991 210.083 248.309 207.667 C 247.383 206.338,246.370 204.899,246.057 204.469 L 245.487 203.688 246.285 203.234 C 251.100 200.492,250.776 193.161,245.735 190.802 C 243.879 189.933,243.110 189.846,237.292 189.839 L 232.000 189.833 232.000 191.667 M113.279 226.292 C 116.870 226.317,122.795 226.317,126.446 226.292 C 130.097 226.267,127.158 226.246,119.917 226.246 C 112.675 226.246,109.688 226.267,113.279 226.292 M146.279 226.277 C 146.217 226.338,146.167 232.301,146.167 239.528 L 146.167 252.667 159.418 252.667 L 172.669 252.667 172.626 239.458 L 172.583 226.250 159.487 226.207 C 152.284 226.184,146.340 226.215,146.279 226.277 M227.445 226.277 C 227.384 226.338,227.333 232.301,227.333 239.528 L 227.333 252.667 240.584 252.667 L 253.835 252.667 253.793 239.458 L 253.750 226.250 240.654 226.207 C 233.451 226.184,227.507 226.215,227.445 226.277 M172.500 239.417 L 172.500 252.500 159.417 252.500 L 146.333 252.500 146.333 239.417 L 146.333 226.333 159.417 226.333 L 172.500 226.333 172.500 239.417 M253.667 239.417 L 253.667 252.500 240.583 252.500 L 227.500 252.500 227.500 239.417 L 227.500 226.333 240.583 226.333 L 253.667 226.333 253.667 239.417 M272.167 231.083 L 272.167 233.000 280.083 233.000 L 288.000 233.000 288.000 231.083 L 288.000 229.167 280.083 229.167 L 272.167 229.167 272.167 231.083 M272.167 243.582 L 272.167 249.667 280.083 249.667 L 288.000 249.667 288.000 247.750 L 288.000 245.833 282.417 245.833 L 276.833 245.833 276.833 243.503 L 276.833 241.172 281.617 241.128 L 286.400 241.083 286.408 239.333 L 286.417 237.583 279.292 237.540 L 272.167 237.496 272.167 243.582 M113.208 252.625 C 116.852 252.650,122.815 252.650,126.458 252.625 C 130.102 252.600,127.121 252.579,119.833 252.579 C 112.546 252.579,109.565 252.600,113.208 252.625 M93.500 278.832 L 93.500 291.998 80.292 292.042 L 67.083 292.085 80.375 292.126 L 93.667 292.167 93.667 278.917 C 93.667 271.629,93.629 265.667,93.583 265.667 C 93.537 265.667,93.500 271.591,93.500 278.832 M306.374 278.876 L 306.333 292.169 319.542 292.126 L 332.750 292.083 332.752 278.875 L 332.753 265.667 332.709 278.833 L 332.665 292.000 319.583 292.000 L 306.502 292.000 306.458 278.792 L 306.415 265.583 306.374 278.876 M106.748 278.958 L 106.750 292.083 119.958 292.085 L 133.167 292.086 120.001 292.042 L 106.835 291.998 106.791 278.916 L 106.747 265.833 106.748 278.958 M273.375 292.125 C 277.019 292.150,282.981 292.150,286.625 292.125 C 290.269 292.100,287.287 292.079,280.000 292.079 C 272.712 292.079,269.731 292.100,273.375 292.125 M93.579 318.333 C 93.579 325.621,93.600 328.602,93.625 324.958 C 93.650 321.315,93.650 315.352,93.625 311.708 C 93.600 308.065,93.579 311.046,93.579 318.333 M106.746 318.333 C 106.746 325.621,106.767 328.602,106.792 324.958 C 106.817 321.315,106.817 315.352,106.792 311.708 C 106.767 308.065,106.746 311.046,106.746 318.333 M306.413 318.333 C 306.413 325.621,306.433 328.602,306.458 324.958 C 306.483 321.315,306.483 315.352,306.458 311.708 C 306.433 308.065,306.413 311.046,306.413 318.333 M332.746 318.333 C 332.746 325.621,332.767 328.602,332.792 324.958 C 332.817 321.315,332.817 315.352,332.792 311.708 C 332.767 308.065,332.746 311.046,332.746 318.333 " stroke="none" fill="#f1f1f1" fill-rule="evenodd"></path></g></svg>